<svg width="22" height="28" viewBox="0 0 22 28" fill="none" xmlns="http://www.w3.org/2000/svg">
<path d="M7.59733 0.303788L7.66995 0.21967C7.93622 -0.0465966 8.35288 -0.0708027 8.64649 0.147052L8.73061 0.21967L11 2.48906L13.2694 0.21967C13.5623 -0.0732233 14.0372 -0.0732233 14.33 0.21967C14.5963 0.485936 14.6205 0.9026 14.4027 1.19621L14.33 1.28033L12.538 3.072H15C15 3.5 15 4.57325 15 4.57325H6.5C3.73858 4.57325 1.5 6.81182 1.5 9.57325V18.0732C1.5 20.8347 3.73858 23.0732 6.5 23.0732H15.5C18.2614 23.0732 20.5 20.8347 20.5 18.0732V9.57325C21.242 9.57325 21.242 9.57325 22 9.5V18.0732C22 21.6631 19.0899 24.5732 15.5 24.5732H6.5C2.91015 24.5732 0 21.6631 0 18.0732L0 9.57325C0 5.9834 2.91015 3.07325 6.5 3.07325L9.462 3.073L7.66995 1.28033C7.40369 1.01406 7.37948 0.5974 7.59733 0.303788Z" fill="black"/>
<path d="M11.6818 24L11 23.9999C10.7071 24.2928 9.75489 24.7941 9.462 24.5012H7V22.9999H15.5C18.2614 22.9999 20.5 20.7614 20.5 17.9999L20.5 9.49994C20.5 6.73852 18.2614 4.49994 15.5 4.49994L6.5 4.49994C3.73858 4.49994 1.5 6.73852 1.5 9.49994L1.5 17.9999C0.757954 17.9999 0.757954 17.9999 0 18.0732L0 9.49994C0 5.91009 2.91015 2.99994 6.5 2.99994L15.5 2.99994C19.0899 2.99994 22 5.91009 22 9.49994L22 17.9999C22 21.5898 19.0899 24.4999 15.5 24.4999L12.538 24.5002L12 24.5C11.877 24.3124 11.7716 24.1463 11.6818 24Z" fill="black"/>
<path d="M4.55803 12.5301L10.2349 11.0254C10.679 10.9077 11.1148 11.2124 11.1709 11.6538L11.177 11.7504V13.6155L16.1088 12.3583C16.5101 12.256 16.9185 12.4984 17.0208 12.8998C17.1146 13.2677 16.9187 13.6415 16.5762 13.78L16.4793 13.8118L10.6123 15.3074C10.1697 15.4202 9.73856 15.1157 9.68304 14.6767L9.67703 14.5807V12.7251L4.94234 13.98C4.54195 14.0862 4.13134 13.8476 4.02522 13.4472C3.92794 13.0802 4.12028 12.7046 4.46141 12.5628L4.55803 12.5301L10.2349 11.0254L4.55803 12.5301Z" fill="black"/>
</svg>
